<svg width="55" height="24" viewBox="0 0 55 24" fill="none" xmlns="http://www.w3.org/2000/svg">
<g id="POK" clip-path="url(#clip0_1295_7909)">
<path id="Vector" d="M15.0173 5.39271L14.9794 5.34921C14.136 4.4173 12.7684 3.96378 10.8322 3.96378H3.19806L0.585938 22.2014H5.47851L6.27131 16.5602H7.80948C9.74251 16.5602 11.3407 16.2247 12.6073 15.591C12.2277 12.0221 13.0764 8.43118 15.0173 5.39271ZM7.73052 12.9568H6.78295L7.57891 7.61686H8.80763C10.3458 7.61686 11.1133 8.29719 11.1133 9.62983C11.1133 12.1243 9.85621 12.9568 7.73052 12.9568Z" fill="white"/>
<path id="Vector_2" d="M54.4172 3.96378H48.9371L41.7389 11.3694L42.7906 3.96378H37.898V3.98861C38.8752 5.8693 39.3614 7.95945 39.313 10.0709C39.3755 13.7925 38.0445 17.4067 35.5734 20.2257L35.2891 22.2014H40.1816L40.9492 16.8615L42.9991 14.92L45.9681 22.2014H51.4261L46.941 11.5962L54.4172 3.96378Z" fill="white"/>
<path id="Vector_3" d="M35.1217 2.78955C33.3655 0.925715 30.8988 -0.00620243 27.756 -0.00620243C25.9375 -0.0331189 24.1336 0.316996 22.4617 1.02135C20.7899 1.7257 19.2877 2.76847 18.053 4.08178C16.7565 5.37837 15.7362 6.91636 15.0517 8.60566C14.3673 10.2949 14.0324 12.1016 14.0669 13.9197C14.0669 16.9454 14.945 19.3715 16.7011 21.2353C18.4573 23.0991 20.9272 23.9938 24.0699 23.9938C25.8884 24.021 27.6922 23.6707 29.3636 22.9658C31.035 22.2608 32.5364 21.2171 33.7698 19.9027C35.0668 18.6063 36.0877 17.0685 36.7727 15.3792C37.4577 13.6899 37.7931 11.8831 37.7591 10.0647C37.7591 7.04321 36.8799 4.61818 35.1217 2.78955ZM29.9859 16.7869C29.3642 17.5979 28.5562 18.2527 27.6279 18.6976C26.6996 19.1425 25.6773 19.3649 24.6448 19.3466C21.5684 19.3466 19.7427 17.0852 19.7427 13.6278C19.7427 11.0681 20.4187 8.9402 21.8053 7.24411C22.4223 6.42608 23.2286 5.7644 24.1575 5.31387C25.0863 4.86334 26.1108 4.63694 27.1463 4.65339C30.2544 4.65339 32.08 6.91174 32.08 10.3692C32.08 12.9288 31.3598 15.0567 29.9859 16.7869Z" fill="#07074E"/>
</g>
<defs>
<clipPath id="clip0_1295_7909">
<rect width="53.8278" height="24" fill="white" transform="translate(0.585938)"/>
</clipPath>
</defs>
</svg>
